<svg xmlns="http://www.w3.org/2000/svg" width="24" height="24" viewBox="0 0 24 24" fill="none">
  <path d="M12 3.25C7.719 3.25 4.25 6.596 4.25 10.77C4.25 12.394 4.75 13.9 5.664 15.17L4.5 20L9.43 18.86C10.53 19.34 11.74 19.59 12.97 19.59H13.03C17.281 19.59 20.75 16.244 20.75 12.07C20.75 7.896 17.406 4.25 13.156 4.25H12Z" stroke="#25D366" stroke-width="1.6" stroke-linecap="round" stroke-linejoin="round"/>
  <path d="M10.25 9C10.25 9 9.75 9.75 9.75 10.25C9.75 10.75 10 11.25 10.25 11.75C10.5 12.25 11.25 13.25 12.25 13.75C13.25 14.25 13.75 14.25 14.25 14.25C14.75 14.25 15.25 13.75 15.25 13.75L14.5 12.5" stroke="#25D366" stroke-width="1.6" stroke-linecap="round" stroke-linejoin="round"/>
</svg>
